<svg width="1920" height="1080" viewBox="0 0 1920 1080" fill="none" xmlns="http://www.w3.org/2000/svg">
<g clip-path="url(#clip0_251_465)">
<path d="M1920 0H0V1080H1920V0Z" fill="#09150A"/>
<path d="M137.143 180H0V360H137.143V180Z" fill="#09150A"/>
<path d="M0 180.01C18.1843 180.01 35.6239 189.491 48.4821 206.367C61.3404 223.244 68.5641 246.133 68.5641 270L0 180.01C0 203.877 7.2237 226.766 20.082 243.643C32.9402 260.519 50.3798 270 68.5641 270" fill="#252E1E"/>
<path d="M411.429 180H274.286V360H411.429V180Z" fill="#09150A"/>
<path d="M342.865 359.99C342.865 348.173 344.638 336.471 348.084 325.553C351.53 314.634 356.58 304.714 362.947 296.358C369.313 288.001 376.872 281.373 385.191 276.85C393.509 272.328 402.425 270 411.429 270L342.865 359.99C361.049 359.99 378.489 350.509 391.347 333.633C404.205 316.756 411.429 293.867 411.429 270" fill="#A58347"/>
<path d="M1097.14 180H960V360H1097.14V180Z" fill="#09150A"/>
<path d="M960.008 270C978.192 270 995.632 279.481 1008.49 296.358C1021.35 313.234 1028.57 336.123 1028.57 359.99L960.008 270C960.008 293.867 967.232 316.756 980.09 333.633C992.948 350.509 1010.39 359.99 1028.57 359.99" fill="#050C06"/>
<path d="M1234.29 180H1097.14V360H1234.29V180Z" fill="#09150A"/>
<path d="M1645.71 360.019C1645.71 312.278 1660.16 266.492 1685.89 232.733C1711.61 198.975 1746.49 180.01 1782.87 180.01L1645.71 360.019C1682.09 360.019 1716.97 341.054 1742.69 307.296C1768.42 273.537 1782.87 227.751 1782.87 180.01" fill="#09150A"/>
<path d="M1782.87 180.01C1819.24 180.01 1854.12 198.975 1879.85 232.733C1905.57 266.492 1920.02 312.278 1920.02 360.019L1782.87 180.01C1782.87 227.751 1797.31 273.537 1823.04 307.296C1848.76 341.054 1883.64 360.019 1920.02 360.019" fill="#0D180D"/>
<path d="M274.286 360H137.143V540H274.286V360Z" fill="#09150A"/>
<path d="M137.15 450.01C146.154 450.01 155.07 452.337 163.389 456.86C171.707 461.382 179.266 468.011 185.632 476.367C191.999 484.724 197.049 494.644 200.495 505.562C203.941 516.48 205.714 528.182 205.714 540L137.15 450.01C137.15 473.877 144.374 496.766 157.232 513.643C170.09 530.519 187.53 540 205.714 540" fill="#09150A"/>
<path d="M274.278 540C274.278 492.258 288.728 446.472 314.449 412.714C340.169 378.955 375.054 359.99 411.429 359.99L274.278 540C310.653 540 345.538 521.035 371.258 487.276C396.979 453.518 411.429 407.732 411.429 359.99" fill="#010101"/>
<path d="M1097.14 359.99C1133.51 359.99 1168.39 378.955 1194.12 412.714C1219.84 446.472 1234.29 492.258 1234.29 540L1097.14 359.99C1097.14 407.732 1111.59 453.518 1137.31 487.276C1163.03 521.035 1197.91 540 1234.29 540" fill="#D8A75B"/>
<path d="M1371.43 360H1234.29V540H1371.43V360Z" fill="#09150A"/>
<path d="M1234.29 449.981C1234.29 426.114 1241.51 403.224 1254.37 386.348C1267.23 369.471 1284.67 359.99 1302.85 359.99L1234.29 449.981C1252.47 449.981 1269.91 440.5 1282.77 423.623C1295.63 406.747 1302.85 383.857 1302.85 359.99" fill="#B68F4E"/>
<path d="M0 720.01C0 672.268 14.4497 626.482 40.1704 592.724C65.891 558.965 100.776 540 137.15 540L0 720.01C36.3745 720.01 71.2592 701.044 96.9799 667.286C122.701 633.528 137.15 587.742 137.15 540" fill="#62542D"/>
<path d="M274.286 540H137.143V720H274.286V540Z" fill="#09150A"/>
<path d="M205.714 540C223.899 540 241.338 549.481 254.196 566.358C267.055 583.234 274.278 606.123 274.278 629.99L205.714 540C205.714 563.867 212.938 586.756 225.796 603.633C238.655 620.509 256.094 629.99 274.278 629.99" fill="#7E6838"/>
<path d="M274.278 720.01C274.278 672.268 288.728 626.482 314.449 592.724C340.169 558.965 375.054 540 411.429 540L274.278 720.01C310.653 720.01 345.538 701.044 371.258 667.286C396.979 633.528 411.429 587.742 411.429 540" fill="#040904"/>
<path d="M685.715 540H548.572V720H685.715V540Z" fill="#09150A"/>
<path d="M548.579 629.99C566.763 629.99 584.203 639.471 597.061 656.348C609.92 673.224 617.143 696.114 617.143 719.981L548.579 629.99C548.579 641.808 550.353 653.51 553.798 664.428C557.244 675.346 562.294 685.267 568.661 693.623C575.028 701.979 582.586 708.608 590.905 713.13C599.223 717.653 608.139 719.981 617.143 719.981" fill="#071008"/>
<path d="M617.143 629.99C635.327 629.99 652.767 639.471 665.625 656.348C678.483 673.224 685.707 696.114 685.707 719.981L617.143 629.99C617.143 641.808 618.917 653.51 622.362 664.428C625.808 675.346 630.858 685.267 637.225 693.623C643.592 701.979 651.15 708.608 659.469 713.13C667.787 717.653 676.703 719.981 685.707 719.981" fill="#293222"/>
<path d="M822.858 540H685.715V720H822.858V540Z" fill="#09150A"/>
<path d="M685.707 629.99C685.707 606.123 692.931 583.234 705.789 566.358C718.647 549.481 736.087 540 754.271 540L685.707 629.99C703.891 629.99 721.331 620.509 734.189 603.633C747.047 586.756 754.271 563.867 754.271 540" fill="#081309"/>
<path d="M754.293 629.99C754.293 606.123 761.517 583.234 774.375 566.358C787.234 549.481 804.673 540 822.858 540L754.293 629.99C772.478 629.99 789.917 620.509 802.776 603.633C815.634 586.756 822.858 563.867 822.858 540" fill="#152013"/>
<path d="M754.293 719.981C754.293 696.114 761.517 673.224 774.375 656.348C787.234 639.471 804.673 629.99 822.858 629.99L754.293 719.981C763.297 719.981 772.213 717.653 780.532 713.13C788.85 708.608 796.409 701.979 802.776 693.623C809.142 685.267 814.193 675.346 817.638 664.428C821.084 653.51 822.858 641.808 822.858 629.99" fill="#987A42"/>
<path d="M1234.29 540H1097.14V720H1234.29V540Z" fill="#09150A"/>
<path d="M1165.72 540C1183.91 540 1201.35 549.481 1214.2 566.358C1227.06 583.234 1234.29 606.123 1234.29 629.99L1165.72 540C1165.72 563.867 1172.95 586.756 1185.8 603.633C1198.66 620.509 1216.1 629.99 1234.29 629.99" fill="#242D1E"/>
<path d="M1097.14 629.99C1115.32 629.99 1132.76 639.471 1145.62 656.348C1158.48 673.224 1165.7 696.114 1165.7 719.981L1097.14 629.99C1097.14 641.808 1098.91 653.51 1102.35 664.428C1105.8 675.346 1110.85 685.267 1117.22 693.623C1123.58 701.979 1131.14 708.608 1139.46 713.13C1147.78 717.653 1156.7 719.981 1165.7 719.981" fill="#050B05"/>
<path d="M1371.43 540H1234.29V720H1371.43V540Z" fill="#09150A"/>
<path d="M1645.71 540H1508.57V720H1645.71V540Z" fill="#09150A"/>
<path d="M1577.15 629.99C1595.34 629.99 1612.77 639.471 1625.63 656.348C1638.49 673.224 1645.72 696.114 1645.72 719.981L1577.15 629.99C1577.15 641.808 1578.92 653.51 1582.37 664.428C1585.82 675.346 1590.87 685.267 1597.23 693.623C1603.6 701.979 1611.16 708.608 1619.48 713.13C1627.8 717.653 1636.71 719.981 1645.72 719.981" fill="#202A1B"/>
<path d="M1782.87 720.01C1782.87 672.268 1797.31 626.482 1823.04 592.724C1848.76 558.965 1883.64 540 1920.02 540L1782.87 720.01C1819.24 720.01 1854.12 701.044 1879.85 667.286C1905.57 633.528 1920.02 587.742 1920.02 540" fill="#172114"/>
<path d="M274.286 720H137.143V900H274.286V720Z" fill="#09150A"/>
<path d="M205.714 720.01C223.899 720.01 241.338 729.491 254.196 746.367C267.055 763.244 274.278 786.133 274.278 810L205.714 720.01C205.714 743.877 212.938 766.766 225.796 783.643C238.655 800.519 256.094 810 274.278 810" fill="#383F2D"/>
<path d="M137.15 899.99C137.15 876.123 144.374 853.234 157.232 836.358C170.09 819.481 187.53 810 205.714 810L137.15 899.99C155.334 899.99 172.774 890.509 185.632 873.633C198.491 856.756 205.714 833.867 205.714 810" fill="#63552D"/>
<path d="M205.714 810C223.899 810 241.338 819.481 254.196 836.358C267.055 853.234 274.278 876.123 274.278 899.99L205.714 810C205.714 833.867 212.938 856.756 225.796 873.633C238.655 890.509 256.094 899.99 274.278 899.99" fill="#313928"/>
<path d="M274.278 720.01C310.653 720.01 345.538 738.975 371.258 772.733C396.979 806.492 411.429 852.278 411.429 900.019L274.278 720.01C274.278 767.751 288.728 813.537 314.449 847.296C340.169 881.054 375.054 900.019 411.429 900.019" fill="#BA924F"/>
<path d="M411.429 720.01C447.803 720.01 482.688 738.975 508.409 772.733C534.129 806.492 548.579 852.278 548.579 900.019L411.429 720.01C411.429 767.751 425.878 813.537 451.599 847.296C477.32 881.054 512.204 900.019 548.579 900.019" fill="#DCAA5C"/>
<path d="M685.715 720H548.572V900H685.715V720Z" fill="#09150A"/>
<path d="M617.143 720.01C635.327 720.01 652.767 729.491 665.625 746.367C678.483 763.244 685.707 786.133 685.707 810L617.143 720.01C617.143 743.877 624.367 766.766 637.225 783.643C650.083 800.519 667.523 810 685.707 810" fill="#040A05"/>
<path d="M617.143 810C635.327 810 652.767 819.481 665.625 836.358C678.483 853.234 685.707 876.123 685.707 899.99L617.143 810C617.143 833.867 624.367 856.756 637.225 873.633C650.083 890.509 667.523 899.99 685.707 899.99" fill="#2B3323"/>
<path d="M822.858 720H685.715V900H822.858V720Z" fill="#09150A"/>
<path d="M685.707 720.01C703.891 720.01 721.331 729.491 734.189 746.367C747.047 763.244 754.271 786.133 754.271 810L685.707 720.01C685.707 743.877 692.931 766.766 705.789 783.643C718.647 800.519 736.087 810 754.271 810" fill="#313927"/>
<path d="M754.293 810C754.293 786.133 761.517 763.244 774.375 746.367C787.234 729.491 804.673 720.01 822.858 720.01L754.293 810C772.478 810 789.917 800.519 802.776 783.643C815.634 766.766 822.858 743.877 822.858 720.01" fill="#030703"/>
<path d="M685.707 810C703.891 810 721.331 819.481 734.189 836.358C747.047 853.234 754.271 876.123 754.271 899.99L685.707 810C685.707 833.867 692.931 856.756 705.789 873.633C718.647 890.509 736.087 899.99 754.271 899.99" fill="#030603"/>
<path d="M754.293 810C772.478 810 789.917 819.481 802.776 836.358C815.634 853.234 822.858 876.123 822.858 899.99L754.293 810C754.293 833.867 761.517 856.756 774.375 873.633C787.234 890.509 804.673 899.99 822.858 899.99" fill="#182215"/>
<path d="M960 720H822.857V900H960V720Z" fill="#09150A"/>
<path d="M822.857 810C822.857 786.133 830.081 763.244 842.939 746.367C855.798 729.491 873.237 720.01 891.421 720.01L822.857 810C841.042 810 858.481 800.519 871.34 783.643C884.198 766.766 891.421 743.877 891.421 720.01" fill="black"/>
<path d="M891.421 720.01C909.606 720.01 927.045 729.491 939.904 746.367C952.762 763.244 959.986 786.133 959.986 810L891.421 720.01C891.421 743.877 898.645 766.766 911.503 783.643C924.362 800.519 941.801 810 959.986 810" fill="#050D06"/>
<path d="M891.421 899.99C891.421 876.123 898.645 853.234 911.503 836.358C924.362 819.481 941.801 810 959.986 810L891.421 899.99C909.606 899.99 927.045 890.509 939.904 873.633C952.762 856.756 959.986 833.867 959.986 810" fill="#202A1B"/>
<path d="M960.008 720.01C996.382 720.01 1031.27 738.975 1056.99 772.733C1082.71 806.492 1097.16 852.278 1097.16 900.019L960.008 720.01C960.008 767.751 974.458 813.537 1000.18 847.296C1025.9 881.054 1060.78 900.019 1097.16 900.019" fill="#020603"/>
<path d="M1097.14 900.019C1097.14 852.278 1111.59 806.492 1137.31 772.733C1163.03 738.975 1197.91 720.01 1234.29 720.01L1097.14 900.019C1133.51 900.019 1168.39 881.054 1194.12 847.296C1219.84 813.537 1234.29 767.751 1234.29 720.01" fill="#0A160B"/>
<path d="M1234.29 720.01C1270.66 720.01 1305.55 738.975 1331.27 772.733C1356.99 806.492 1371.44 852.278 1371.44 900.019L1234.29 720.01C1234.29 767.751 1248.74 813.537 1274.46 847.296C1300.18 881.054 1335.06 900.019 1371.44 900.019" fill="#35341B"/>
<path d="M1371.44 900.019C1371.44 852.278 1385.89 806.492 1411.61 772.733C1437.33 738.975 1472.21 720.01 1508.59 720.01L1371.44 900.019C1407.81 900.019 1442.7 881.054 1468.42 847.296C1494.14 813.537 1508.59 767.751 1508.59 720.01" fill="#353D2A"/>
<path d="M1645.71 720H1508.57V900H1645.71V720Z" fill="#09150A"/>
<path d="M1508.56 810C1508.56 786.133 1515.79 763.244 1528.65 746.367C1541.5 729.491 1558.94 720.01 1577.13 720.01L1508.56 810C1526.75 810 1544.19 800.519 1557.05 783.643C1569.9 766.766 1577.13 743.877 1577.13 720.01" fill="#060D06"/>
<path d="M1577.15 720.01C1595.34 720.01 1612.77 729.491 1625.63 746.367C1638.49 763.244 1645.72 786.133 1645.72 810L1577.15 720.01C1577.15 731.827 1578.92 743.529 1582.37 754.448C1585.82 765.366 1590.87 775.286 1597.23 783.643C1603.6 791.999 1611.16 798.628 1619.48 803.15C1627.8 807.672 1636.71 810 1645.72 810" fill="#1B2111"/>
<path d="M1782.87 720.01C1819.24 720.01 1854.12 738.975 1879.85 772.733C1905.57 806.492 1920.02 852.278 1920.02 900.019L1782.87 720.01C1782.87 767.751 1797.31 813.537 1823.04 847.296C1848.76 881.054 1883.64 900.019 1920.02 900.019" fill="#222C1D"/>
<path d="M0 1080C0 1032.26 14.4497 986.472 40.1704 952.714C65.891 918.956 100.776 899.99 137.15 899.99L0 1080C36.3745 1080 71.2592 1061.03 96.9799 1027.28C122.701 993.518 137.15 947.732 137.15 899.99" fill="#050B05"/>
<path d="M137.15 1080C137.15 1032.26 151.6 986.472 177.321 952.714C203.041 918.956 237.926 899.99 274.3 899.99L137.15 1080C173.525 1080 208.409 1061.03 234.13 1027.28C259.851 993.518 274.3 947.732 274.3 899.99" fill="#6F5D32"/>
<path d="M411.429 900H274.286V1080H411.429V900Z" fill="#09150A"/>
<path d="M274.278 989.981C274.278 966.114 281.502 943.224 294.36 926.348C307.219 909.471 324.658 899.99 342.842 899.99L274.278 989.981C292.463 989.981 309.902 980.5 322.76 963.623C335.619 946.747 342.842 923.857 342.842 899.99" fill="#020502"/>
<path d="M342.865 989.981C342.865 966.114 350.088 943.224 362.947 926.348C375.805 909.471 393.245 899.99 411.429 899.99L342.865 989.981C361.049 989.981 378.489 980.5 391.347 963.623C404.205 946.747 411.429 923.857 411.429 899.99" fill="#060F07"/>
<path d="M274.278 1080C274.278 1056.13 281.502 1033.24 294.36 1016.37C307.219 999.491 324.658 990.01 342.842 990.01L274.278 1080C292.463 1080 309.902 1070.52 322.76 1053.64C335.619 1036.77 342.842 1013.88 342.842 990.01" fill="#262F1F"/>
<path d="M342.865 1080C342.865 1068.18 344.638 1056.48 348.084 1045.56C351.53 1034.64 356.58 1024.72 362.947 1016.37C369.313 1008.01 376.872 1001.38 385.191 996.86C393.509 992.337 402.425 990.01 411.429 990.01L342.865 1080C361.049 1080 378.489 1070.52 391.347 1053.64C404.205 1036.77 411.429 1013.88 411.429 990.01" fill="#FEC26A"/>
<path d="M411.429 899.99C447.803 899.99 482.688 918.956 508.409 952.714C534.129 986.472 548.579 1032.26 548.579 1080L411.429 899.99C411.429 947.732 425.878 993.518 451.599 1027.28C477.32 1061.03 512.204 1080 548.579 1080" fill="#A58347"/>
<path d="M685.715 900H548.572V1080H685.715V900Z" fill="#09150A"/>
<path d="M548.579 899.99C566.763 899.99 584.203 909.471 597.061 926.348C609.92 943.224 617.143 966.114 617.143 989.981L548.579 899.99C548.579 923.857 555.803 946.747 568.661 963.623C581.519 980.5 598.959 989.981 617.143 989.981" fill="#182315"/>
<path d="M617.143 989.981C617.143 966.114 624.367 943.224 637.225 926.348C650.083 909.471 667.523 899.99 685.707 899.99L617.143 989.981C635.327 989.981 652.767 980.5 665.625 963.623C678.483 946.747 685.707 923.857 685.707 899.99" fill="#081409"/>
<path d="M548.579 990.01C566.763 990.01 584.203 999.491 597.061 1016.37C609.92 1033.24 617.143 1056.13 617.143 1080L548.579 990.01C548.579 1013.88 555.803 1036.77 568.661 1053.64C581.519 1070.52 598.959 1080 617.143 1080" fill="#DFAC5E"/>
<path d="M617.143 990.01C635.327 990.01 652.767 999.491 665.625 1016.37C678.483 1033.24 685.707 1056.13 685.707 1080L617.143 990.01C617.143 1013.88 624.367 1036.77 637.225 1053.64C650.083 1070.52 667.523 1080 685.707 1080" fill="#081309"/>
<path d="M822.858 900H685.715V1080H822.858V900Z" fill="#09150A"/>
<path d="M685.707 899.99C703.891 899.99 721.331 909.471 734.189 926.348C747.047 943.224 754.271 966.114 754.271 989.981L685.707 899.99C685.707 923.857 692.931 946.747 705.789 963.623C718.647 980.5 736.087 989.981 754.271 989.981" fill="#DAA95C"/>
<path d="M754.293 989.981C754.293 966.114 761.517 943.224 774.375 926.348C787.234 909.471 804.673 899.99 822.858 899.99L754.293 989.981C772.478 989.981 789.917 980.5 802.776 963.623C815.634 946.747 822.858 923.857 822.858 899.99" fill="#65562E"/>
<path d="M685.707 990.01C703.891 990.01 721.331 999.491 734.189 1016.37C747.047 1033.24 754.271 1056.13 754.271 1080L685.707 990.01C685.707 1013.88 692.931 1036.77 705.789 1053.64C718.647 1070.52 736.087 1080 754.271 1080" fill="#574C28"/>
<path d="M754.293 990.01C772.478 990.01 789.917 999.491 802.776 1016.37C815.634 1033.24 822.858 1056.13 822.858 1080L754.293 990.01C754.293 1013.88 761.517 1036.77 774.375 1053.64C787.234 1070.52 804.673 1080 822.858 1080" fill="#040A05"/>
<path d="M960 900H822.857V1080H960V900Z" fill="#09150A"/>
<path d="M822.857 899.99C841.042 899.99 858.481 909.471 871.34 926.348C884.198 943.224 891.421 966.114 891.421 989.981L822.857 899.99C822.857 923.857 830.081 946.747 842.939 963.623C855.798 980.5 873.237 989.981 891.421 989.981" fill="#020502"/>
<path d="M891.421 989.981C891.421 966.114 898.645 943.224 911.503 926.348C924.362 909.471 941.801 899.99 959.986 899.99L891.421 989.981C909.606 989.981 927.045 980.5 939.904 963.623C952.762 946.747 959.986 923.857 959.986 899.99" fill="#2C3524"/>
<path d="M822.857 990.01C841.042 990.01 858.481 999.491 871.34 1016.37C884.198 1033.24 891.421 1056.13 891.421 1080L822.857 990.01C822.857 1013.88 830.081 1036.77 842.939 1053.64C855.798 1070.52 873.237 1080 891.421 1080" fill="#283020"/>
<path d="M891.421 1080C891.421 1056.13 898.645 1033.24 911.503 1016.37C924.362 999.491 941.801 990.01 959.986 990.01L891.421 1080C909.606 1080 927.045 1070.52 939.904 1053.64C952.762 1036.77 959.986 1013.88 959.986 990.01" fill="#050C06"/>
<path d="M960.008 1080C960.008 1032.26 974.458 986.472 1000.18 952.714C1025.9 918.956 1060.78 899.99 1097.16 899.99L960.008 1080C996.382 1080 1031.27 1061.03 1056.99 1027.28C1082.71 993.518 1097.16 947.732 1097.16 899.99" fill="#2C3524"/>
<path d="M1097.14 899.99C1133.51 899.99 1168.39 918.956 1194.12 952.714C1219.84 986.472 1234.29 1032.26 1234.29 1080L1097.14 899.99C1097.14 947.732 1111.59 993.518 1137.31 1027.28C1163.03 1061.03 1197.91 1080 1234.29 1080" fill="#273020"/>
<path d="M1234.29 899.99C1270.66 899.99 1305.55 918.956 1331.27 952.714C1356.99 986.472 1371.44 1032.26 1371.44 1080L1234.29 899.99C1234.29 947.732 1248.74 993.518 1274.46 1027.28C1300.18 1061.03 1335.06 1080 1371.44 1080" fill="#09140A"/>
<path d="M1508.57 900H1371.43V1080H1508.57V900Z" fill="#09150A"/>
<path d="M1371.44 899.99C1389.62 899.99 1407.06 909.471 1419.92 926.348C1432.78 943.224 1440 966.114 1440 989.981L1371.44 899.99C1371.44 923.857 1378.66 946.747 1391.52 963.623C1404.38 980.5 1421.82 989.981 1440 989.981" fill="#2A2C17"/>
<path d="M1440 989.981C1440 966.114 1447.22 943.224 1460.08 926.348C1472.94 909.471 1490.38 899.99 1508.56 899.99L1440 989.981C1449 989.981 1457.92 987.653 1466.24 983.131C1474.56 978.608 1482.12 971.979 1488.48 963.623C1494.85 955.267 1499.9 945.346 1503.35 934.428C1506.79 923.51 1508.56 911.808 1508.56 899.99" fill="#111B0D"/>
<path d="M1371.44 1080C1371.44 1056.13 1378.66 1033.24 1391.52 1016.37C1404.38 999.491 1421.82 990.01 1440 990.01L1371.44 1080C1389.62 1080 1407.06 1070.52 1419.92 1053.64C1432.78 1036.77 1440 1013.88 1440 990.01" fill="#131C0E"/>
<path d="M1440 990.01C1449 990.01 1457.92 992.337 1466.24 996.86C1474.56 1001.38 1482.12 1008.01 1488.48 1016.37C1494.85 1024.72 1499.9 1034.64 1503.35 1045.56C1506.79 1056.48 1508.56 1068.18 1508.56 1080L1440 990.01C1440 1013.88 1447.22 1036.77 1460.08 1053.64C1472.94 1070.52 1490.38 1080 1508.56 1080" fill="#060E07"/>
<path d="M1508.56 899.99C1544.94 899.99 1579.82 918.956 1605.54 952.714C1631.26 986.472 1645.71 1032.26 1645.71 1080L1508.56 899.99C1508.56 947.732 1523.01 993.518 1548.73 1027.28C1574.46 1061.03 1609.34 1080 1645.71 1080" fill="#091409"/>
<path d="M1645.71 1080C1645.71 1032.26 1660.16 986.472 1685.89 952.714C1711.61 918.956 1746.49 899.99 1782.87 899.99L1645.71 1080C1682.09 1080 1716.97 1061.03 1742.69 1027.28C1768.42 993.518 1782.87 947.732 1782.87 899.99" fill="#E1AE5E"/>
<path d="M1920 900H1782.86V1080H1920V900Z" fill="#09150A"/>
<path d="M1782.87 989.981C1782.87 966.114 1790.09 943.224 1802.95 926.348C1815.81 909.471 1833.25 899.99 1851.43 899.99L1782.87 989.981C1801.05 989.981 1818.49 980.5 1831.35 963.623C1844.21 946.747 1851.43 923.857 1851.43 899.99" fill="#E9B461"/>
<path d="M1851.43 899.99C1869.61 899.99 1887.05 909.471 1899.91 926.348C1912.77 943.224 1919.99 966.114 1919.99 989.981L1851.43 899.99C1851.43 923.857 1858.65 946.747 1871.51 963.623C1884.37 980.5 1901.81 989.981 1919.99 989.981" fill="#303826"/>
<path d="M1782.87 1080C1782.87 1056.13 1790.09 1033.24 1802.95 1016.37C1815.81 999.491 1833.25 990.01 1851.43 990.01L1782.87 1080C1801.05 1080 1818.49 1070.52 1831.35 1053.64C1844.21 1036.77 1851.43 1013.88 1851.43 990.01" fill="#9F7F45"/>
<path d="M1851.43 1080C1851.43 1056.13 1858.65 1033.24 1871.51 1016.37C1884.37 999.491 1901.81 990.01 1919.99 990.01L1851.43 1080C1869.61 1080 1887.05 1070.52 1899.91 1053.64C1912.77 1036.77 1919.99 1013.88 1919.99 990.01" fill="#020402"/>
</g>
<defs>
<clipPath id="clip0_251_465">
<rect width="1920" height="1080" fill="white"/>
</clipPath>
</defs>
</svg>
