<?xml version="1.0" standalone="no"?>
<!DOCTYPE svg PUBLIC "-//W3C//DTD SVG 20010904//EN"
 "http://www.w3.org/TR/2001/REC-SVG-20010904/DTD/svg10.dtd">
<svg version="1.0" xmlns="http://www.w3.org/2000/svg"
 width="70.000000pt" height="70.000000pt" viewBox="0 0 70.000000 70.000000"
 preserveAspectRatio="xMidYMid meet">
<metadata>
Created by potrace 1.14, written by Peter Selinger 2001-2017
</metadata>
<g transform="translate(0.000000,70.000000) scale(0.100000,-0.100000)"
fill="#000000" stroke="none">
<path d="M116 680 c-50 -25 -93 -74 -106 -119 -14 -51 -13 -375 2 -423 15 -51
79 -115 130 -129 24 -6 115 -9 226 -7 215 3 241 11 296 87 l31 43 3 203 c3
192 2 205 -18 245 -25 48 -42 67 -85 96 -27 17 -51 19 -235 21 -188 3 -208 1
-244 -17z"/>
</g>
</svg>
